<?xml version="1.0" encoding="UTF-8" standalone="no"?>
<svg
   xmlns:dc="http://purl.org/dc/elements/1.1/"
   xmlns:cc="http://creativecommons.org/ns#"
   xmlns:rdf="http://www.w3.org/1999/02/22-rdf-syntax-ns#"
   xmlns:svg="http://www.w3.org/2000/svg"
   xmlns="http://www.w3.org/2000/svg"
   xmlns:sodipodi="http://sodipodi.sourceforge.net/DTD/sodipodi-0.dtd"
   xmlns:inkscape="http://www.inkscape.org/namespaces/inkscape"
   width="42.666668"
   height="16"
   viewBox="0 0 42.666668 16"
   version="1.1"
   id="svg31"
   sodipodi:docname="elife.svg"
   inkscape:version="1.0.2 (1.0.2+r75+1)">
  <metadata
     id="metadata37">
    <rdf:RDF>
      <cc:Work
         rdf:about="">
        <dc:format>image/svg+xml</dc:format>
        <dc:type
           rdf:resource="http://purl.org/dc/dcmitype/StillImage" />
        <dc:title>elife-logo-xs</dc:title>
      </cc:Work>
    </rdf:RDF>
  </metadata>
  <defs
     id="defs35" />
  <sodipodi:namedview
     pagecolor="#ffffff"
     bordercolor="#666666"
     borderopacity="1"
     objecttolerance="10"
     gridtolerance="10"
     guidetolerance="10"
     inkscape:pageopacity="0"
     inkscape:pageshadow="2"
     inkscape:window-width="1853"
     inkscape:window-height="1025"
     id="namedview33"
     showgrid="false"
     fit-margin-top="0"
     fit-margin-left="0"
     fit-margin-right="0"
     fit-margin-bottom="0"
     inkscape:zoom="9.2426471"
     inkscape:cx="2.0197348"
     inkscape:cy="23.0722"
     inkscape:window-x="67"
     inkscape:window-y="27"
     inkscape:window-maximized="1"
     inkscape:current-layer="elife-logo-xs"
     inkscape:document-rotation="0"
     inkscape:pagecheckerboard="false" />
  <!-- Generator: Sketch 63.1 (92452) - https://sketch.com -->
  <title
     id="title2">elife-logo-xs</title>
  <desc
     id="desc4">Created with Sketch.</desc>
  <g
     id="elife-logo-xs"
     stroke="none"
     stroke-width="1"
     fill="none"
     fill-rule="evenodd"
     transform="scale(0.31372549)">
    <g
       id="logo"
       transform="translate(4.9056383,5.4662394)">
      <g
         id="symbol">
        <circle
           id="Oval"
           stroke="#bec3c5"
           stroke-width="2"
           fill="#ffffff"
           cx="21.5"
           cy="21.5"
           r="20.5" />
        <path
           d="m 18.4541,18.45435 c 1.094,1.094 2.884,1.094 3.9775,0 l 10.293,-10.2925 c -1.4705,-1.2525 -3.15,-2.2635 -4.979,-2.976 l -9.2915,9.291 c -1.094,1.094 -1.094,2.8835 0,3.9775"
           id="Fill-2"
           fill="#7cb13f" />
        <path
           d="m 24.4204,24.42065 c 1.094,1.094 1.094,2.8835 0,3.9775 l -7.955,7.955 c -1.094,1.0935 -2.8835,1.0935 -3.9775,0 -1.094,-1.094 -1.094,-2.8835 0,-3.9775 l 7.955,-7.955 c 1.0935,-1.094 2.8835,-1.094 3.9775,0"
           id="Fill-4"
           fill="#d71d62" />
        <path
           d="m 16.46535,20.4431 c 1.094,1.094 1.094,2.884 0,3.9775 -1.094,1.094 -2.8835,1.094 -3.9775,0 -1.094,-1.0935 -1.094,-2.8835 0,-3.9775 1.094,-1.094 2.8835,-1.094 3.9775,0"
           id="Fill-6"
           fill="#336a2d" />
        <path
           d="m 26.4092,10.4995 c 1.094,1.094 1.094,2.8835 0,3.9775 -1.094,1.094 -2.884,1.094 -3.9775,0 -1.094,-1.094 -1.094,-2.8835 0,-3.9775 1.0935,-1.094 2.8835,-1.094 3.9775,0"
           id="Fill-8"
           fill="#336a2d" />
        <path
           d="m 18.4541,30.3867 c 1.094,1.094 1.094,2.884 0,3.9775 -1.094,1.094 -2.884,1.094 -3.9775,0 -1.094,-1.0935 -1.094,-2.8835 0,-3.9775 1.0935,-1.094 2.8835,-1.094 3.9775,0"
           id="Fill-10"
           fill="#861450" />
        <path
           d="m 36.35305,12.4883 c 1.094,1.094 1.094,2.8835 0,3.9775 -1.094,1.094 -2.884,1.094 -3.9775,0 -1.094,-1.094 -1.094,-2.8835 0,-3.9775 1.0935,-1.094 2.8835,-1.094 3.9775,0"
           id="Fill-12"
           fill="#861450" />
        <path
           d="m 30.38675,18.45435 c 1.094,1.094 1.094,2.884 0,3.9775 -1.094,1.094 -2.884,1.094 -3.9775,0 -1.094,-1.0935 -1.094,-2.8835 0,-3.9775 1.0935,-1.094 2.8835,-1.094 3.9775,0"
           id="Fill-14"
           fill="#d71d62" />
        <path
           d="m 32.3755,28.3982 c 1.094,1.094 1.094,2.8835 0,3.9775 -1.094,1.094 -2.884,1.094 -3.9775,0 -1.094,-1.094 -1.094,-2.8835 0,-3.9775 1.0935,-1.094 2.8835,-1.094 3.9775,0"
           id="Fill-16"
           fill="#2994d2" />
        <path
           d="m 16.46535,8.51075 c 1.094,1.094 1.094,2.8835 0,3.9775 -1.094,1.094 -2.8835,1.094 -3.9775,0 -1.094,-1.094 -1.094,-2.8835 0,-3.9775 1.094,-1.094 2.8835,-1.094 3.9775,0"
           id="Fill-18"
           fill="#08589b" />
        <path
           d="m 10.4995,26.4094 c -1.094,-1.094 -2.884,-1.094 -3.9775,0 l -1.3365,1.336 c 0.7125,1.8295 1.7235,3.5085 2.976,4.979 l 2.338,-2.3375 c 1.094,-1.094 1.094,-2.8835 0,-3.9775"
           id="Fill-20"
           fill="#861450" />
        <path
           d="m 18.4541,6.52195 c 1.094,1.094 2.884,1.094 3.9775,0 l 1.989,-1.989 c 0.0735,-0.0735 0.13,-0.1575 0.1935,-0.2375 -1.0305,-0.1905 -2.0915,-0.2955 -3.1765,-0.2955 -1.303,0 -2.571,0.148 -3.793,0.4205 -0.0305,0.758 0.234,1.526 0.8095,2.1015"
           id="Fill-22"
           fill="#d71d62" />
        <path
           d="m 10.4995,18.45435 c 1.094,-1.094 1.094,-2.8835 0,-3.9775 -1.094,-1.094 -2.884,-1.094 -3.9775,0 l -1.7145,1.714 C 4.284,17.84785 4,19.60985 4,21.43735 c 0,0.9245 0.0735,1.832 0.213,2.718 0.482,-0.118 0.94,-0.3545 1.3145,-0.729 z"
           id="Fill-24"
           fill="#2994d2" />
        <path
           d="m 34.36425,22.4319 c -1.094,1.094 -1.094,2.8835 0,3.9775 1.0155,1.0155 2.6245,1.0755 3.726,0.205 0.51,-1.6365 0.7845,-3.375 0.7845,-5.177 0,-1.0855 -0.1045,-2.146 -0.295,-3.177 -0.08,0.064 -0.164,0.12 -0.238,0.194 z"
           id="Fill-26"
           fill="#08589b" />
        <path
           d="m 26.4092,34.36425 c -1.094,-1.094 -2.884,-1.094 -3.9775,0 l -3.9775,3.9775 c -0.074,0.074 -0.13,0.158 -0.194,0.238 1.031,0.1905 2.092,0.295 3.1775,0.295 1.8015,0 3.5405,-0.2745 5.1765,-0.784 0.8705,-1.1015 0.8105,-2.7105 -0.205,-3.7265"
           id="Fill-28"
           fill="#7cb13f" />
      </g>
      <g
         id="letters"
         transform="translate(47.5,6.3718)"
         fill="#666b6e">
        <path
           d="m 9.834,11.4427 c -1.1365,0 -2.0275,0.3605 -2.672,1.081 -0.6445,0.721 -1.0135,1.743 -1.1075,3.0675 h 7.5235 c -0.0235,-1.3245 -0.369,-2.3465 -1.037,-3.0675 -0.668,-0.7205 -1.5705,-1.081 -2.707,-1.081 m 0.756,16.5585 c -3.164,0 -5.637,-0.873 -7.418,-2.619 -1.7815,-1.746 -2.672,-4.219 -2.672,-7.418 0,-3.293 0.8235,-5.839 2.4695,-7.6375 1.6465,-1.799 3.923,-2.6985 6.8295,-2.6985 2.777,0 4.9395,0.791 6.486,2.373 1.547,1.582 2.3205,3.7675 2.3205,6.5565 v 2.602 H 5.9315 c 0.059,1.523 0.51,2.7125 1.3535,3.568 0.844,0.8555 2.0275,1.2835 3.551,1.2835 1.1835,0 2.3025,-0.123 3.3575,-0.3695 1.0545,-0.246 2.156,-0.6385 3.3045,-1.1775 v 4.1485 c -0.9375,0.4685 -1.9395,0.8175 -3.006,1.046 -1.066,0.2285 -2.367,0.3425 -3.902,0.3425"
           id="Fill-32" />
        <polygon
           id="Fill-34"
           points="36.5,23.6282 36.5,27.6282 21.5,27.6282 21.5,2.6282 26.5,2.6282 26.5,23.6282 " />
        <path
           d="m 39.5,27.6282 h 5 v -19 h -5 z m 0,-23.508086 C 39.5,2.4586795 40.333619,1.6282 42,1.6282 c 1.666809,0 2.5,0.8304795 2.5,2.491914 0,0.7914764 -0.208191,1.4074391 -0.625,1.8474125 C 43.458619,6.4079755 42.833619,6.6282 42,6.6282 c -1.666381,0 -2.5,-0.8361872 -2.5,-2.508086 z"
           id="Fill-36" />
        <path
           d="m 60.5,12.6282 h -5 v 15 h -5 v -15 h -3 v -3 l 3,-1 v -1 c 0,-2.238 0.6075,-4.422 1.709,-5.453 1.1015,-1.0315 2.865,-1.547 5.291,-1.547 1.8515,0 3.498,0.2755 4.9395,0.826 l -1.451,3.6835 C 59.91,4.7982 58.414,4.6282 57.5,4.6282 c -0.7615,0 -1.3125,0.2255 -1.6525,0.6765 C 55.508,5.7562 55.5,6.9252 55.5,7.6282 v 1 h 5 z"
           id="Fill-38" />
        <path
           d="m 71.834,11.4427 c -1.1365,0 -2.0275,0.3605 -2.672,1.081 -0.6445,0.721 -1.0135,1.743 -1.1075,3.0675 h 7.5235 c -0.0235,-1.3245 -0.369,-2.3465 -1.037,-3.0675 -0.668,-0.7205 -1.5705,-1.081 -2.707,-1.081 m 0.756,16.5585 c -3.164,0 -5.637,-0.873 -7.418,-2.619 -1.7815,-1.746 -2.672,-4.219 -2.672,-7.418 0,-3.293 0.8235,-5.839 2.4695,-7.6375 1.6465,-1.799 3.923,-2.6985 6.8295,-2.6985 2.777,0 4.9395,0.791 6.486,2.373 1.547,1.582 2.3205,3.7675 2.3205,6.5565 v 2.602 h -12.674 c 0.059,1.523 0.51,2.7125 1.3535,3.568 0.844,0.8555 2.0275,1.2835 3.551,1.2835 1.1835,0 2.3025,-0.123 3.3575,-0.3695 1.0545,-0.246 2.156,-0.6385 3.3045,-1.1775 v 4.1485 c -0.9375,0.4685 -1.9395,0.8175 -3.006,1.046 -1.066,0.2285 -2.367,0.3425 -3.902,0.3425"
           id="Fill-39" />
      </g>
    </g>
  </g>
</svg>
